<?xml version="1.0" standalone="no"?>
<svg xmlns="http://www.w3.org/2000/svg" viewBox="0 0 126.24 36" width="126.24" height="36"><g fill="#ff5576" color="#ff5576" transform="translate(0 3.9999999999999982) scale(0.2800001)"><svg width="100.0" height="100.0" x="0.0" y="0.0" viewBox="0 0 100 100"><path d="M50,94.185c-0.696,0-1.391-0.179-2.015-0.534c-0.42-0.239-10.397-5.978-20.753-15.711  C13.225,64.775,5.324,50.544,4.386,36.785c-0.015-0.216-0.012-0.432,0.007-0.645c-0.011-0.303-0.017-0.59-0.017-0.869  C4.377,21.336,15.713,10,29.648,10C37.8,10,45.321,13.992,50,20.319C54.679,13.992,62.2,10,70.352,10  c13.935,0,25.271,11.336,25.271,25.271c0,0.394-0.011,0.805-0.033,1.251c0.495,14.128-6.986,28.537-21.644,41.681  C63.143,87.89,52.313,93.501,51.857,93.735C51.273,94.035,50.637,94.185,50,94.185z M12.537,36.762  C14.589,61.326,42.471,80.587,50.1,85.418c8.075-4.65,38.264-23.738,37.364-48.639c-0.011-0.167-0.012-0.335-0.002-0.503  c0.021-0.376,0.032-0.705,0.032-1.005c0-9.452-7.69-17.142-17.143-17.142c-7.564,0-14.329,5.067-16.45,12.324  c-0.507,1.733-2.096,2.924-3.901,2.924s-3.395-1.191-3.901-2.924c-2.121-7.256-8.886-12.324-16.451-12.324  c-9.452,0-17.142,7.689-17.142,17.142c0,0.3,0.011,0.629,0.032,1.005C12.547,36.438,12.547,36.601,12.537,36.762z"></path></svg></g><path fill="#0b0cac" fill-rule="nonzero" d="M0 7.87L0 7.87Q0 0 5.89 0Q11.78 0 11.78 7.87L11.78 7.87Q11.78 9.31 11.68 10.39Q11.57 11.47 11.20 12.60Q10.82 13.73 10.20 14.45Q9.58 15.17 8.48 15.62Q7.39 16.08 5.89 16.08Q4.39 16.08 3.30 15.62Q2.21 15.17 1.58 14.45Q0.96 13.73 0.59 12.60Q0.22 11.47 0.11 10.39Q0 9.31 0 7.87ZM3.86 13.78L3.86 13.78Q4.68 14.30 5.89 14.30Q7.10 14.30 7.93 13.78Q8.76 13.25 9.17 12.26L9.17 12.26Q9.89 10.56 9.89 7.90L9.89 7.90Q9.89 1.42 5.89 1.42Q1.90 1.42 1.90 7.90L1.90 7.90Q1.90 12.53 3.86 13.78ZM24.70 12.24L24.70 12.24Q24.77 10.22 24.77 6.96Q24.77 3.70 24.55 1.70L24.55 1.70L23.66 1.63Q23.62 1.25 23.62 0.97Q23.62 0.70 23.69 0.29L23.69 0.29Q24.46 0.31 25.45 0.31Q26.45 0.31 27.19 0.29L27.19 0.29Q27.26 0.65 27.26 0.92Q27.26 1.20 27.22 1.63L27.22 1.63L26.38 1.70Q26.21 3.65 26.21 9.01Q26.21 14.38 26.62 15.67L26.62 15.67Q25.90 15.91 25.57 15.91Q25.25 15.91 24.43 15.86L24.43 15.86Q24.26 15.12 23.02 13.16Q21.77 11.21 19.91 8.50Q18.05 5.78 17.23 4.44L17.23 4.44Q17.21 5.47 17.21 8.64Q17.21 11.81 17.42 14.33L17.42 14.33L18.31 14.40Q18.36 14.78 18.36 15.06Q18.36 15.34 18.29 15.74L18.29 15.74Q17.52 15.72 16.51 15.72Q15.50 15.72 14.76 15.74L14.76 15.74Q14.69 15.38 14.69 15.11Q14.69 14.83 14.74 14.40L14.74 14.40L15.58 14.33Q15.77 11.74 15.77 7.76Q15.77 3.79 15.55 1.82L15.55 1.82L14.62 1.75Q14.54 1.42 14.54 1.01Q14.54 0.60 14.57 0.41L14.57 0.41Q16.61 0.36 17.59 0.29L17.59 0.29Q18.05 2.02 20.18 5.47Q22.32 8.93 24.70 12.24ZM34.46 1.63L33.55 1.70Q33.38 3.65 33.38 7.73Q33.38 11.81 33.60 14.33L33.60 14.33L34.46 14.40Q34.51 14.78 34.51 15.06Q34.51 15.34 34.44 15.74L34.44 15.74Q33.60 15.72 32.50 15.72Q31.39 15.72 30.58 15.74L30.58 15.74Q30.50 15.38 30.50 15.11Q30.50 14.83 30.55 14.40L30.55 14.40L31.39 14.33Q31.58 11.74 31.58 7.72Q31.58 3.70 31.37 1.70L31.37 1.70L30.55 1.63Q30.50 1.25 30.50 0.97Q30.50 0.70 30.58 0.29L30.58 0.29Q31.42 0.31 32.52 0.31Q33.62 0.31 34.44 0.29L34.44 0.29Q34.51 0.65 34.51 0.92Q34.51 1.20 34.46 1.63L34.46 1.63ZM42.29 7.34L42.29 7.34Q42.98 7.99 44.05 7.99Q45.12 7.99 45.80 7.09Q46.49 6.19 46.49 4.70L46.49 4.70Q46.49 1.37 43.32 1.37L43.32 1.37Q42.24 1.37 41.06 1.85L41.06 1.85Q40.90 3.94 40.90 7.78Q40.90 11.62 41.11 14.33L41.11 14.33L42 14.40Q42.05 14.93 42.05 15.13Q42.05 15.34 41.98 15.74L41.98 15.74Q41.28 15.72 39.94 15.72Q38.59 15.72 38.09 15.74L38.09 15.74Q38.02 15.38 38.02 15.06Q38.02 14.74 38.06 14.40L38.06 14.40L38.90 14.33Q39.10 11.69 39.10 7.70Q39.10 3.72 38.86 1.82L38.86 1.82L37.94 1.75Q37.87 1.46 37.87 1.01Q37.87 0.55 37.90 0.41L37.90 0.41Q39.50 0.36 40.73 0.18Q41.95 0 43.34 0L43.34 0Q48.58 0 48.58 4.70L48.58 4.70Q48.58 6.60 47.64 7.82Q46.70 9.05 45.02 9.36L45.02 9.36Q47.40 13.13 48.31 14.21L48.31 14.21L49.44 14.28Q49.49 14.66 49.49 14.99Q49.49 15.31 49.42 15.67L49.42 15.67Q47.23 15.74 46.37 15.79L46.37 15.79L46.27 15.53Q45.86 14.52 45.28 13.43Q44.69 12.34 42.82 9.41L42.82 9.41Q42.31 9.38 41.78 9.14L41.78 9.14Q41.78 8.66 41.94 8.10Q42.10 7.54 42.29 7.34ZM51.17 7.87L51.17 7.87Q51.17 0 57.06 0Q62.95 0 62.95 7.87L62.95 7.87Q62.95 9.31 62.84 10.39Q62.74 11.47 62.36 12.60Q61.99 13.73 61.37 14.45Q60.74 15.17 59.65 15.62Q58.56 16.08 57.06 16.08Q55.56 16.08 54.47 15.62Q53.38 15.17 52.75 14.45Q52.13 13.73 51.76 12.60Q51.38 11.47 51.28 10.39Q51.17 9.31 51.17 7.87ZM55.03 13.78L55.03 13.78Q55.85 14.30 57.06 14.30Q58.27 14.30 59.10 13.78Q59.93 13.25 60.34 12.26L60.34 12.26Q61.06 10.56 61.06 7.90L61.06 7.90Q61.06 1.42 57.06 1.42Q53.06 1.42 53.06 7.90L53.06 7.90Q53.06 12.53 55.03 13.78ZM74.90 4.92Q74.16 4.92 73.75 4.46Q73.34 4.01 73.34 3.28Q73.34 2.54 73.66 2.14L73.66 2.14Q72.89 1.42 71.54 1.42L71.54 1.42Q69.58 1.42 68.57 3.06Q67.56 4.70 67.56 7.90L67.56 7.90Q67.56 14.30 71.54 14.30L71.54 14.30Q72.50 14.30 73.50 13.84Q74.50 13.37 75.19 12.60L75.19 12.60Q75.94 13.20 76.15 14.50L76.15 14.50Q74.02 16.08 71.54 16.08L71.54 16.08Q68.40 16.08 67.00 14.14Q65.59 12.19 65.59 8.09L65.59 8.09Q65.59 0 71.54 0L71.54 0Q73.34 0 74.75 0.95Q76.15 1.90 76.15 3.41Q76.15 4.92 74.90 4.92L74.90 4.92ZM78.46 7.87L78.46 7.87Q78.46 0 84.35 0Q90.24 0 90.24 7.87L90.24 7.87Q90.24 9.31 90.13 10.39Q90.02 11.47 89.65 12.60Q89.28 13.73 88.66 14.45Q88.03 15.17 86.94 15.62Q85.85 16.08 84.35 16.08Q82.85 16.08 81.76 15.62Q80.66 15.17 80.04 14.45Q79.42 13.73 79.04 12.60Q78.67 11.47 78.56 10.39Q78.46 9.31 78.46 7.87ZM82.32 13.78L82.32 13.78Q83.14 14.30 84.35 14.30Q85.56 14.30 86.39 13.78Q87.22 13.25 87.62 12.26L87.62 12.26Q88.34 10.56 88.34 7.90L88.34 7.90Q88.34 1.42 84.35 1.42Q80.35 1.42 80.35 7.90L80.35 7.90Q80.35 12.53 82.32 13.78Z" transform="translate(36, 9.96)"></path></svg>